<svg width="999" height="603" viewBox="0 0 999 603" fill="none" xmlns="http://www.w3.org/2000/svg">
<path opacity="0.1" d="M687.5 603C735.273 603 774 595.389 774 586C774 576.611 735.273 569 687.5 569C639.727 569 601 576.611 601 586C601 595.389 639.727 603 687.5 603Z" fill="#BB1133"/>
<path d="M214 293.31L213.63 313.26L210.67 474.97L185.33 534.31L98 535.31V302.5L189.14 295.28L214 293.31Z" fill="#5F5D7E"/>
<path opacity="0.1" d="M214 293.31L213.63 313.26L210.67 474.97L185.33 534.31L98 535.31V302.5L189.14 295.28L214 293.31Z" fill="black"/>
<path d="M214 293.31L213.63 313.26L210.67 474.97L185.33 534.31L192 313.64L191.98 313.5L189.14 295.28L214 293.31Z" fill="#5F5D7E"/>
<path opacity="0.1" d="M189.14 295.28L214 293.31L213.63 313.26L191.98 313.5L98 314.55V302.5L189.14 295.28Z" fill="black"/>
<path d="M999 302.5V533.97H978.67L897.33 474.64V295.97L970 289.14L974.46 291.19L978.67 293.13L999 302.5Z" fill="#5F5D7E"/>
<path opacity="0.1" d="M999 291.19H978.67V533.97H999V291.19Z" fill="black"/>
<path opacity="0.1" d="M999 291.19V304.5L978.67 304.73L897.33 305.63V295.97L970 289.14L974.46 291.19L978.67 293.13V291.19H999Z" fill="black"/>
<path d="M999 283.64V302.5L0 313.64V289.64L94 270.64L912 264.64L999 283.64Z" fill="#5F5D7E"/>
<path opacity="0.1" d="M999 283.64V302.5L0 313.64V289.64L999 283.64Z" fill="black"/>
<path d="M692.6 0.970001H388.32C375.717 0.970001 365.5 11.1869 365.5 23.79V249.84C365.5 262.443 375.717 272.66 388.32 272.66H692.6C705.203 272.66 715.42 262.443 715.42 249.84V23.79C715.42 11.1869 705.203 0.970001 692.6 0.970001Z" fill="#474157"/>
<path d="M687.78 25.48H393.66V247.11H687.78V25.48Z" fill="#F0EBEC"/>
<path d="M382.18 141.11C384.842 141.11 387 138.952 387 136.29C387 133.628 384.842 131.47 382.18 131.47C379.518 131.47 377.36 133.628 377.36 136.29C377.36 138.952 379.518 141.11 382.18 141.11Z" fill="#E6E8EC"/>
<path d="M700.81 144.76C705.201 144.76 708.76 141.201 708.76 136.81C708.76 132.419 705.201 128.86 700.81 128.86C696.419 128.86 692.86 132.419 692.86 136.81C692.86 141.201 696.419 144.76 700.81 144.76Z" fill="#E6E8EC"/>
<path d="M572.43 137.15L534.82 114.29C534.039 113.857 533.158 113.636 532.265 113.647C531.372 113.658 530.498 113.902 529.727 114.354C528.957 114.806 528.318 115.451 527.873 116.226C527.428 117 527.193 117.877 527.19 118.77V163.23C527.193 164.123 527.428 165 527.873 165.774C528.318 166.549 528.957 167.194 529.727 167.646C530.498 168.098 531.372 168.342 532.265 168.353C533.158 168.364 534.039 168.143 534.82 167.71L572.43 146.13C573.227 145.682 573.891 145.03 574.352 144.241C574.814 143.452 575.058 142.554 575.058 141.64C575.058 140.726 574.814 139.828 574.352 139.039C573.891 138.25 573.227 137.598 572.43 137.15ZM600.71 141C600.71 130.518 597.602 120.271 591.778 111.555C585.954 102.839 577.677 96.0458 567.992 92.0344C558.308 88.0229 547.651 86.9734 537.37 89.0184C527.089 91.0634 517.645 96.1112 510.233 103.523C502.821 110.936 497.773 120.379 495.728 130.66C493.683 140.941 494.733 151.598 498.744 161.282C502.756 170.967 509.549 179.244 518.265 185.068C526.981 190.892 537.228 194 547.71 194C561.766 194 575.247 188.416 585.187 178.477C595.126 168.537 600.71 155.056 600.71 141ZM504.97 141C504.97 132.547 507.477 124.284 512.173 117.255C516.869 110.226 523.544 104.748 531.354 101.513C539.164 98.2785 547.757 97.4321 556.048 99.0812C564.339 100.73 571.954 104.801 577.932 110.778C583.909 116.756 587.98 124.371 589.629 132.662C591.278 140.953 590.431 149.546 587.197 157.356C583.962 165.166 578.484 171.841 571.455 176.537C564.426 181.233 556.163 183.74 547.71 183.74C542.097 183.741 536.539 182.637 531.353 180.489C526.166 178.342 521.454 175.194 517.485 171.225C513.516 167.256 510.368 162.544 508.221 157.357C506.073 152.171 504.969 146.613 504.97 141Z" fill="#C11033"/>
<path d="M803.88 315.14C803.68 313.917 803.299 312.731 802.75 311.62C803.51 309.03 804 307.44 804 307.44C804 307.44 804 307.06 803.88 306.44C803.284 302.776 801.38 299.452 798.521 297.083C795.662 294.715 792.041 293.463 788.33 293.56C782.33 293.67 770.95 294.07 758.33 295.49C759.05 290.44 759.91 284.4 760.81 278.18L762.46 278.36C762.84 278.36 763.24 278.36 763.64 278.42H764.17C765.485 278.502 766.786 278.104 767.83 277.3C768.086 277.051 768.276 276.743 768.384 276.403C768.491 276.062 768.513 275.701 768.446 275.35C768.38 274.999 768.228 274.671 768.003 274.393C767.779 274.116 767.489 273.898 767.16 273.76C768.635 273.907 770.123 273.684 771.49 273.111C772.857 272.539 774.06 271.634 774.99 270.48C775.839 269.293 776.295 267.87 776.295 266.41C776.295 264.95 775.839 263.527 774.99 262.34C772.88 259.34 768.41 257.34 768.17 253.81C768.04 251.81 769.38 250.01 770.43 248.24C772.961 243.821 773.972 238.695 773.309 233.646C772.646 228.597 770.346 223.906 766.76 220.29C765.353 218.894 763.87 217.575 762.32 216.34C760.12 208.26 757.82 201.04 757.14 200.81C756.26 200.52 754.75 198.62 753.31 196.99C753.442 195.615 753.418 194.23 753.24 192.86C752.18 185.86 745.24 180.86 741.42 174.68C737.6 168.5 736.91 160.93 737.89 153.85C738.87 146.77 741.34 139.92 743.35 133.01C744.85 127.88 746.1 122.43 744.42 117.34C743.23 113.71 740.64 110.57 737.97 107.62C731.56 100.53 724.17 93.89 715.05 89.62C708.711 86.6317 701.767 85.1465 694.76 85.28H694.69L693.59 85.34L692.81 85.39L692.03 85.47L691.2 85.55C690.35 85.66 689.51 85.79 688.67 85.96C682.579 84.6058 676.36 83.9085 670.12 83.88H669.31C667.459 83.7706 665.617 84.2051 664.01 85.13C661.79 86.68 661.51 89.46 660.84 91.88C659.637 95.93 657.099 99.4541 653.64 101.88C651.25 103.6 648.44 104.88 646.16 106.68C643.88 108.48 642.1 111.18 642.71 113.84C643.22 116.07 645.3 117.73 647.71 118.74C647.42 119.1 647.12 119.45 646.84 119.82C647.31 120.01 647.84 120.18 648.27 120.32C651.27 121.21 654.5 121.32 657.54 122.13C658.377 122.354 659.199 122.631 660 122.96C657.296 128.046 655.884 133.72 655.89 139.48C655.901 145.877 657.637 152.153 660.914 157.647C664.19 163.141 668.887 167.65 674.51 170.7C674.51 171.04 674.51 171.37 674.51 171.7C674.82 182.14 674.03 194.84 668.69 196.99C663.35 199.14 658.24 201.57 655.09 203.14L654.09 203.67C653.26 203.29 652.43 202.89 651.62 202.47C651.62 202.47 647.37 201.97 648.11 205.21C648.11 205.21 635.26 203.21 628.21 208.7C621.16 214.19 609.59 225.65 607.32 228.64C605.05 231.63 587.5 238.17 587.5 238.17C587.5 238.17 593.03 230.44 590.64 220.97C590.64 220.97 588 209.55 589.26 204.97C590.52 200.39 593.79 183.39 593.79 183.39C593.79 183.39 594.25 165.45 584.46 157.22C574.67 148.99 567.86 142.22 571.64 150.22C573.292 153.887 575.141 157.463 577.18 160.93C577.18 160.93 553.77 166.49 562.08 175.17C570.39 183.85 572.65 183.86 572.65 183.86C572.65 183.86 569.88 205.29 569.37 209.28C568.86 213.27 564.37 243.67 564.37 243.67C564.37 243.67 564.12 258.13 566.64 260.37C566.64 260.37 568.29 269.68 578.72 269.37C578.72 269.37 598.6 268.87 604.14 266.63C609.68 264.39 628.8 252.42 630.82 253.17C630.966 253.229 631.099 253.317 631.21 253.43C631.317 253.522 631.418 253.623 631.51 253.73C629.51 258.16 624.77 273.2 626.79 280.59C626.79 280.59 625.03 301.52 635.6 308.25C635.6 308.25 650.95 334.17 645.16 348.12C644.7 349.25 644.29 350.29 643.91 351.3C635.12 344.01 621.71 337.3 601.23 333.59C599.14 333.21 597.06 332.75 595 332.25C589.18 330.84 573.17 329.55 565.55 354.86C563.773 360.743 561.512 366.47 558.79 371.98C555.79 378.05 552.46 386.75 552.39 395.38C552.22 407.48 558.47 419.47 581.15 423.87C581.4 432.87 582.43 443.59 585.51 451.3C591.8 467 601.87 492.42 601.87 492.42C601.87 492.42 613.95 518.34 614.71 528.8C615.2 535.65 615.92 544.63 615.42 550.8C615.42 551.18 615.36 551.54 615.32 551.9C614.284 553.019 613.153 554.046 611.94 554.97C610.18 555.97 604.39 562.2 604.39 563.69C604.402 565.118 604.529 566.542 604.77 567.95C602.03 570.34 600.53 572.95 600.53 575.55C600.53 589.07 638.9 600.03 686.23 600.03C733.56 600.03 771.92 589.03 771.92 575.55C771.92 563.21 739.92 553.01 698.34 551.33C707.01 547.87 714.71 544.24 717.9 541.33C718.585 540.797 719.107 540.083 719.41 539.27L711.36 520.58C711.36 520.58 710.73 520.72 709.8 520.99L709.24 520.15C705.66 514.7 698.77 503.84 698.77 500.89C698.77 499.8 696.95 492.83 694.31 483.28V452.63C720.57 456.63 754.41 451.19 754.41 451.19L754.56 451.11H755.22V450.75C759.77 448.23 782.53 434.9 789.28 417.22C791.28 412.06 788.79 404.67 783.84 396.77C787.3 388.18 795.84 365.99 794.99 357.14C794.99 356.67 794.93 356.14 794.93 355.62C795.011 354.716 795.044 353.808 795.03 352.9C796.03 339.9 804.03 316.15 804.03 316.15C804.03 316.15 803.98 315.74 803.88 315.14ZM633.88 257.38C635.7 260.58 637.65 264.67 638.42 266.33C638.42 266.33 635.76 261.43 633.93 257.38H633.88ZM635.78 537.48L635.59 537.55V536.55C635.481 533.942 635.545 531.33 635.78 528.73C635.808 527.329 635.513 525.94 634.92 524.67C631.838 516.927 629.777 508.815 628.79 500.54C627.79 491.82 626.96 482.31 627.48 479.89C628.26 476.18 628.9 448.08 627.93 434.23L643.41 437.71L661.41 474.41C661.41 474.41 672.99 492.33 676.58 506.47V520.63C675.53 524.848 673.695 528.831 671.17 532.37C668.78 535.64 666.45 538.95 664.29 542.37C663.63 543.43 662.9 544.52 662.17 545.54C661.93 545.54 650.1 546.23 648.09 548.45C646.85 549.82 644.69 551.98 644.33 554.15L643.82 554.23C641.5 547.32 635.83 537.48 635.83 537.48H635.78Z" fill="url(#paint0_linear)"/>
<path opacity="0.1" d="M711.93 524.63L707.93 537.63L690.93 552.38L665.93 559.56C665.93 559.56 654.18 553.13 658.18 551.88C659.29 551.53 660.61 550.26 661.95 548.6C660.55 553.7 671.68 547.13 671.68 547.13C671.68 547.13 700.43 526.63 703.43 524.38C705.397 523.075 707.557 522.087 709.83 521.45C711.08 523.4 711.93 524.63 711.93 524.63Z" fill="black"/>
<path d="M711.93 524.63L707.93 537.63L690.93 552.38L665.93 559.56C665.93 559.56 654.18 553.13 658.18 551.88C659.29 551.53 660.61 550.26 661.95 548.6C663.157 547.06 664.272 545.451 665.29 543.78C667.43 540.34 669.75 537.02 672.12 533.78C675.578 528.858 677.747 523.147 678.43 517.17C680.18 503.42 662.43 475.67 662.43 475.67L630.18 409.42L675.18 414.92C675.18 414.92 699.43 498.17 699.43 502.17C699.43 505.17 706.27 516.02 709.83 521.49C711.08 523.4 711.93 524.63 711.93 524.63Z" fill="#FDC2CC"/>
<path d="M686.97 601.6C733.98 601.6 772.09 590.609 772.09 577.05C772.09 563.491 733.98 552.5 686.97 552.5C639.959 552.5 601.85 563.491 601.85 577.05C601.85 590.609 639.959 601.6 686.97 601.6Z" fill="#5F5D7E"/>
<path d="M719.93 540.63C719.626 541.443 719.108 542.158 718.43 542.7C712.25 548.37 689.14 556.8 674.86 561.38C671.117 562.686 667.3 563.772 663.43 564.63C659.93 564.88 652.68 562.63 647.68 559.56C642.68 556.49 647.18 552.13 649.2 549.88C651.22 547.63 663.2 546.96 663.2 546.96C657.45 556.53 671.69 548.13 671.69 548.13C671.69 548.13 700.44 527.63 703.44 525.38C706.44 523.13 711.94 521.88 711.94 521.88L719.93 540.63Z" fill="#393939"/>
<path opacity="0.1" d="M718.43 542.72C712.25 548.39 689.14 556.82 674.86 561.4C687.8 550.44 709.5 544.71 718.43 542.72Z" fill="black"/>
<path opacity="0.1" d="M686.97 574.05C696.375 574.05 704 571.852 704 569.14C704 566.428 696.375 564.23 686.97 564.23C677.565 564.23 669.94 566.428 669.94 569.14C669.94 571.852 677.565 574.05 686.97 574.05Z" fill="black"/>
<path d="M695 439.64H677.5V569.14H695V439.64Z" fill="#5F5D7E"/>
<path opacity="0.1" d="M695 446.06V461.06C691.5 459.98 683.51 455.43 677.5 451.85V439.63H681.15L695 446.06Z" fill="black"/>
<path d="M653.77 383.26C653.77 383.26 711.55 368.39 725.93 357.26C740.31 346.13 796.78 398.5 789.32 418.26C781.86 438.02 754.7 452.33 754.7 452.33C754.7 452.33 679.59 464.55 666.8 439.06C654.01 413.57 653.77 383.26 653.77 383.26Z" fill="#474157"/>
<path opacity="0.1" d="M653.77 383.26C653.77 383.26 711.55 368.39 725.93 357.26C740.31 346.13 796.78 398.5 789.32 418.26C781.86 438.02 754.7 452.33 754.7 452.33C754.7 452.33 679.59 464.55 666.8 439.06C654.01 413.57 653.77 383.26 653.77 383.26Z" fill="black"/>
<path d="M648.77 377.26C648.77 377.26 706.55 362.39 720.93 351.26C735.31 340.13 791.78 392.5 784.32 412.26C776.86 432.02 749.7 446.33 749.7 446.33C749.7 446.33 674.59 458.55 661.8 433.06C649.01 407.57 648.77 377.26 648.77 377.26Z" fill="#474157"/>
<path d="M595.18 240.9L588.93 238.63C588.93 238.63 594.43 230.88 592.06 221.38C592.06 221.38 589.43 209.92 590.68 205.28C591.93 200.64 595.18 183.63 595.18 183.63C595.18 183.63 595.64 165.63 585.91 157.38C576.18 149.13 569.43 142.38 573.18 150.38C574.818 154.06 576.654 157.649 578.68 161.13C578.68 161.13 555.43 166.7 563.68 175.42C571.93 184.14 574.18 184.13 574.18 184.13C574.18 184.13 571.43 205.63 570.93 209.63C570.43 213.63 565.93 244.13 565.93 244.13C565.93 244.13 565.68 258.63 568.18 260.88C568.735 263.587 570.262 265.997 572.473 267.656C574.684 269.314 577.426 270.105 580.18 269.88C581.96 269.85 603.18 246.4 595.18 240.9Z" fill="#FDC2CC"/>
<path d="M746.18 194.9V208.9L731.68 213.63L706.98 231.81L700.43 236.63L671.18 224.88L652.68 205.38C652.68 205.38 653.58 204.89 655.14 204.08L656.14 203.55C659.27 201.98 664.2 199.55 669.65 197.38C675.1 195.21 675.74 182.49 675.43 172.01V171.01C675.18 163.66 674.43 157.65 674.43 157.65C674.43 157.65 677.48 157.07 681.92 156.41C694.23 154.58 717.2 152.11 715.18 159.65C714.59 162.213 714.59 164.877 715.18 167.44C715.24 167.72 715.3 168.01 715.37 168.29C717.45 177.38 723.89 186.9 723.89 186.9L743.89 194.1L744.45 194.3L746.18 194.9Z" fill="#FDC2CC"/>
<path d="M746.18 199.15V194.9C747.752 194.629 749.358 194.629 750.93 194.9C752.68 195.4 756 200.65 757.5 201.15C759 201.65 768.18 235.9 767.18 238.9C766.18 241.9 756.73 309.63 756.73 309.63L737.68 330.63L733.93 272.88L746.18 238.63V199.15Z" fill="#FDC2CC"/>
<path d="M647.43 356.4C647.43 356.4 630.02 360.15 632.23 365.65C634.44 371.15 644.18 371.4 644.18 371.4L647.43 356.4Z" fill="#FDC2CC"/>
<path d="M671.68 245.35L658.43 273.9L642.68 285.4L639.93 267.63C639.93 267.63 634.61 255.88 632.32 253.89C632.209 253.777 632.076 253.689 631.93 253.63C629.93 252.88 610.93 264.88 605.43 267.13C599.93 269.38 580.18 269.88 580.18 269.88L588.93 238.63C588.93 238.63 606.43 232.13 608.68 229.13C610.93 226.13 622.43 214.63 629.43 209.13C636.43 203.63 649.2 205.63 649.2 205.63L649.4 205.71L652.68 207.13L662.18 230.38L671.68 245.35Z" fill="#FDC2CC"/>
<path d="M636.93 530.15C636.695 532.756 636.631 535.375 636.74 537.99C636.81 540.78 636.93 543.15 636.93 543.15L631.18 555.15C631.18 555.15 611.43 561.65 614.68 558.9C615.81 557.95 616.39 555.48 616.68 552.21C617.17 546.03 616.46 537.02 615.97 530.15C615.22 519.65 603.22 493.65 603.22 493.65C603.22 493.65 593.22 468.15 586.97 452.4C580.72 436.65 582.97 408.15 582.97 408.15C582.97 408.15 583.97 386.65 588.47 380.15C592.97 373.65 610.47 371.4 610.47 371.4L618.68 398.63C618.68 398.63 625.43 424.13 627.93 427.88C630.43 431.63 629.68 476.38 628.68 481.13C628.17 483.56 629.03 493.13 629.99 501.85C630.97 510.144 633.013 518.278 636.07 526.05C636.667 527.333 636.961 528.736 636.93 530.15Z" fill="#FDC2CC"/>
<path opacity="0.1" d="M636.93 543.15L631.18 555.15C631.18 555.15 611.43 561.65 614.68 558.9C615.81 557.95 616.39 555.48 616.68 552.21C617.39 551.5 618.15 550.72 618.93 549.92C623.956 544.71 630.044 540.641 636.78 537.99C636.81 540.78 636.93 543.15 636.93 543.15Z" fill="black"/>
<path d="M645.95 561.01C645.956 561.057 645.956 561.104 645.95 561.15C644.95 565.9 628.45 572.4 628.45 572.4C628.45 572.4 617.95 574.15 611.95 575.65C611.491 575.774 611.014 575.818 610.54 575.78C605.91 575.43 605.7 566.52 605.7 565.15C605.7 563.78 611.45 557.4 613.2 556.4C615.179 554.759 617.037 552.978 618.76 551.07C623.892 545.756 630.105 541.606 636.98 538.9C636.98 538.9 646.75 556.08 645.95 561.01Z" fill="#393939"/>
<path opacity="0.1" d="M645.95 561.01C645.956 561.057 645.956 561.104 645.95 561.15C644.95 565.9 628.45 572.4 628.45 572.4C628.45 572.4 617.95 574.15 611.95 575.65C611.491 575.774 611.014 575.818 610.54 575.78C615.98 572.05 629.17 563.1 630.95 562.9C632.73 562.7 641.5 560.18 645.95 561.01Z" fill="black"/>
<path opacity="0.1" d="M715.41 168.29C709.23 173.38 703.55 172.65 694.92 172.65C688.68 172.65 680.57 174.84 675.46 172.03C675.25 164.22 674.46 157.65 674.46 157.65C674.46 157.65 717.96 149.4 715.21 159.65C714.581 162.504 714.65 165.468 715.41 168.29Z" fill="black"/>
<path d="M728.43 139.69C728.43 149.171 724.663 158.265 717.959 164.969C711.255 171.674 702.161 175.44 692.68 175.44C691.76 175.44 690.84 175.44 689.94 175.34C683.007 174.805 676.381 172.26 670.873 168.017C665.364 163.773 661.213 158.016 658.927 151.449C656.641 144.882 656.32 137.792 658.002 131.045C659.685 124.298 663.299 118.189 668.401 113.465C673.502 108.74 679.871 105.607 686.727 104.447C693.583 103.287 700.628 104.152 707 106.935C713.372 109.718 718.794 114.299 722.602 120.117C726.41 125.935 728.439 132.737 728.44 139.69H728.43Z" fill="#FDC2CC"/>
<path opacity="0.1" d="M662.18 230.4L671.68 245.4L658.43 273.95L642.68 285.45L639.93 267.63C639.93 267.63 634.61 255.88 632.32 253.89C632.98 252.28 633.43 251.54 633.43 252.13C633.43 254.63 639.58 265.88 639.58 265.88C658.58 259.38 652.68 234.13 652.68 234.13C652.68 234.13 650.32 211.63 649.4 205.71L652.68 207.13L662.18 230.4Z" fill="black"/>
<path opacity="0.1" d="M746.18 194.9V208.9L731.68 213.63L706.98 231.81L700.43 236.63L671.18 224.88L652.68 205.38C652.68 205.38 653.58 204.89 655.14 204.08L656.14 203.55C669.01 209.4 682.94 211.55 692.89 212.32C697.466 212.708 702.061 212.811 706.65 212.63C744.32 206.63 745.44 197.53 744.5 194.3L746.18 194.9Z" fill="black"/>
<path d="M756.93 421.63C747.5 426.253 737.819 430.343 727.93 433.88C710.68 440.13 672.68 431.88 667.93 430.63C663.18 429.38 626.68 414.88 612.68 409.38C598.68 403.88 595.18 408.38 591.93 407.88C588.68 407.38 586.43 401.13 585.93 399.38C585.43 397.63 594.93 382.38 600.18 374.63C605.43 366.88 621.18 368.38 623.43 367.88C625.68 367.38 641.43 367.88 641.43 367.88C641.43 367.88 640.43 362.88 646.18 348.88C651.93 334.88 636.68 308.88 636.68 308.88C626.18 302.13 627.93 281.13 627.93 281.13C625.43 271.88 633.43 250.63 633.43 253.13C633.43 255.63 639.58 266.88 639.58 266.88C658.58 260.38 652.68 235.13 652.68 235.13C652.68 235.13 649.93 208.88 649.2 205.63C648.47 202.38 652.68 202.88 652.68 202.88C653.493 203.3 654.313 203.7 655.14 204.08C668.3 210.28 682.7 212.54 692.92 213.32C697.496 213.708 702.091 213.811 706.68 213.63C752.35 206.26 744.26 194.51 743.96 194.09L746.18 194.88C762.68 206.88 757.68 246.63 757.68 246.63L751.5 276.3L746.91 298.4C746.91 298.4 763.16 396.9 764.66 401.9C766.16 406.9 756.93 421.63 756.93 421.63Z" fill="#C11033"/>
<path opacity="0.1" d="M635.18 376.63C634.18 377.38 622.93 400.63 631.18 407.13C639.43 413.63 635.18 376.63 635.18 376.63Z" fill="black"/>
<path opacity="0.1" d="M643.18 379.9C643.43 380.65 666.68 417.65 679.43 420.65L643.18 379.9Z" fill="black"/>
<path opacity="0.1" d="M699.19 87.11L695.47 87.9C696.495 87.5219 697.544 87.2112 698.61 86.97L699.19 87.11Z" fill="black"/>
<path opacity="0.1" d="M755.21 246.63L748.21 276.28C744.639 274.651 741.356 272.452 738.49 269.77C736.26 267.65 734.26 265.22 731.39 263.83C727.7 262.04 723.25 262.28 719.06 262.13C713.826 261.935 708.641 261.047 703.64 259.49C702.187 259.126 700.826 258.465 699.64 257.55C697.26 255.45 697.42 252.06 697.64 249.1C698.075 243.346 698.125 237.57 697.79 231.81C697.73 230.73 697.65 229.65 697.56 228.57C697.16 223.74 695.86 218.14 690.92 216.07C688.38 215.07 685.35 215.15 682.92 213.94C682.569 213.763 682.234 213.556 681.92 213.32C678.32 210.8 677.99 205.75 678.13 201.5C678.343 195.66 678.547 189.817 678.74 183.97C678.922 181.086 678.859 178.193 678.55 175.32C678.309 173.412 677.783 171.552 676.99 169.8C674.82 165.16 670.3 161.29 669.49 156.39C669.445 156.162 669.415 155.932 669.4 155.7C668.98 151.32 671.74 147.24 672.71 142.93C674.65 134.26 668.13 124.76 658.54 122.27C655.54 121.49 652.32 121.34 649.33 120.45C648.852 120.307 648.381 120.14 647.92 119.95C655.16 110.29 667.57 103.95 681.66 103.95C703.99 103.95 722.1 119.95 722.1 139.7C722.1 150.9 716.27 160.89 707.16 167.45C707.22 167.73 707.29 168.02 707.37 168.3C709.72 177.39 717.01 186.91 717.01 186.91L739.65 194.11L742.17 194.91C760.87 206.9 755.21 246.63 755.21 246.63Z" fill="black"/>
<path opacity="0.1" d="M767.5 275.35C767.28 275.35 767.07 275.3 766.86 275.26C767.077 275.237 767.297 275.268 767.5 275.35Z" fill="black"/>
<path d="M690.18 86.12C683.923 84.6664 677.523 83.9185 671.1 83.89C669.01 83.89 666.77 84 665.1 85.15C662.89 86.7 662.61 89.5 661.95 91.92C660.756 95.9611 658.238 99.4832 654.8 101.92C652.43 103.65 649.64 104.92 647.37 106.74C645.1 108.56 643.37 111.26 643.94 113.92C644.51 116.58 647.5 118.63 650.5 119.48C653.5 120.33 656.69 120.48 659.71 121.3C669.3 123.79 675.81 133.3 673.87 141.95C672.87 146.26 670.14 150.34 670.56 154.72C671.05 159.95 675.88 163.98 678.15 168.83C680.22 173.25 680.08 178.21 679.92 182.99L679.31 200.53C679.15 205.15 679.55 210.71 684.11 212.97C686.55 214.17 689.59 214.04 692.11 215.1C697.05 217.16 698.35 222.77 698.75 227.59C699.322 234.42 699.348 241.285 698.83 248.12C698.6 251.12 698.44 254.47 700.83 256.57C702.013 257.489 703.376 258.15 704.83 258.51C709.831 260.067 715.016 260.955 720.25 261.15C724.45 261.31 728.89 261.07 732.58 262.85C735.45 264.24 737.45 266.68 739.68 268.79C746.074 274.64 754.224 278.209 762.86 278.94C764.71 279.1 766.81 279.06 768.1 277.87C769.39 276.68 768.63 274.11 766.79 274.26C768.353 274.523 769.958 274.363 771.438 273.796C772.919 273.23 774.221 272.279 775.21 271.04C776.051 269.844 776.503 268.417 776.503 266.955C776.503 265.493 776.051 264.066 775.21 262.87C773.12 259.87 768.68 257.87 768.44 254.31C768.31 252.31 769.64 250.5 770.68 248.72C773.187 244.288 774.188 239.162 773.532 234.113C772.875 229.063 770.597 224.363 767.04 220.72C762.35 215.87 755.32 212.19 753.68 205.97C752.59 201.81 754.24 197.44 753.61 193.21C752.61 186.21 745.68 181.21 741.87 174.97C738.06 168.73 737.39 161.18 738.36 154.08C739.33 146.98 741.79 140.08 743.79 133.18C745.28 128.03 746.51 122.56 744.85 117.45C743.66 113.82 741.1 110.67 738.44 107.7C732.07 100.59 724.74 93.93 715.68 89.7C706.62 85.47 695.58 83.83 685.96 86.96" fill="#474157"/>
<path opacity="0.1" d="M690.18 86.12C683.923 84.6664 677.523 83.9185 671.1 83.89C669.01 83.89 666.77 84 665.1 85.15C662.89 86.7 662.61 89.5 661.95 91.92C660.756 95.9611 658.238 99.4832 654.8 101.92C652.43 103.65 649.64 104.92 647.37 106.74C645.1 108.56 643.37 111.26 643.94 113.92C644.51 116.58 647.5 118.63 650.5 119.48C653.5 120.33 656.69 120.48 659.71 121.3C669.3 123.79 675.81 133.3 673.87 141.95C672.87 146.26 670.14 150.34 670.56 154.72C671.05 159.95 675.88 163.98 678.15 168.83C680.22 173.25 680.08 178.21 679.92 182.99L679.31 200.53C679.15 205.15 679.55 210.71 684.11 212.97C686.55 214.17 689.59 214.04 692.11 215.1C697.05 217.16 698.35 222.77 698.75 227.59C699.322 234.42 699.348 241.285 698.83 248.12C698.6 251.12 698.44 254.47 700.83 256.57C702.013 257.489 703.376 258.15 704.83 258.51C709.831 260.067 715.016 260.955 720.25 261.15C724.45 261.31 728.89 261.07 732.58 262.85C735.45 264.24 737.45 266.68 739.68 268.79C746.074 274.64 754.224 278.209 762.86 278.94C764.71 279.1 766.81 279.06 768.1 277.87C769.39 276.68 768.63 274.11 766.79 274.26C768.353 274.523 769.958 274.363 771.438 273.796C772.919 273.23 774.221 272.279 775.21 271.04C776.051 269.844 776.503 268.417 776.503 266.955C776.503 265.493 776.051 264.066 775.21 262.87C773.12 259.87 768.68 257.87 768.44 254.31C768.31 252.31 769.64 250.5 770.68 248.72C773.187 244.288 774.188 239.162 773.532 234.113C772.875 229.063 770.597 224.363 767.04 220.72C762.35 215.87 755.32 212.19 753.68 205.97C752.59 201.81 754.24 197.44 753.61 193.21C752.61 186.21 745.68 181.21 741.87 174.97C738.06 168.73 737.39 161.18 738.36 154.08C739.33 146.98 741.79 140.08 743.79 133.18C745.28 128.03 746.51 122.56 744.85 117.45C743.66 113.82 741.1 110.67 738.44 107.7C732.07 100.59 724.74 93.93 715.68 89.7C706.62 85.47 695.58 83.83 685.96 86.96" fill="black"/>
<path opacity="0.1" d="M636.68 308.9C636.68 308.9 645.18 312.15 654.18 303.15C663.18 294.15 636.68 308.9 636.68 308.9Z" fill="black"/>
<g opacity="0.1">
<path opacity="0.1" d="M693.94 85.97C695.59 85.642 697.261 85.4315 698.94 85.34C696.605 85.1973 694.262 85.271 691.94 85.56L693.94 85.97Z" fill="black"/>
<path opacity="0.1" d="M744.08 268.79C741.84 266.68 739.85 264.24 736.97 262.85C733.29 261.07 728.84 261.31 724.64 261.15C719.406 260.958 714.22 260.071 709.22 258.51C707.766 258.15 706.403 257.489 705.22 256.57C702.84 254.47 703.01 251.09 703.22 248.12C703.738 241.285 703.712 234.42 703.14 227.59C702.73 222.77 701.44 217.16 696.49 215.1C693.96 214.04 690.93 214.17 688.49 212.97C683.93 210.71 683.49 205.15 683.68 200.53C683.887 194.683 684.09 188.84 684.29 183C684.46 178.21 684.59 173.25 682.52 168.83C680.25 163.98 675.42 159.96 674.93 154.72C674.52 150.35 677.28 146.26 678.25 141.95C680.19 133.28 673.67 123.79 664.08 121.3C661.08 120.52 657.86 120.36 654.87 119.48C651.88 118.6 648.98 116.7 648.36 113.98C647.74 111.26 649.51 108.62 651.78 106.79C654.05 104.96 656.84 103.7 659.22 101.97C662.658 99.5355 665.174 96.0121 666.36 91.97C667.03 89.55 667.36 86.76 669.51 85.2C670.743 84.4358 672.16 84.021 673.61 84C672.72 84 671.83 83.95 670.95 83.95C668.86 83.95 666.62 84.06 664.95 85.2C662.74 86.76 662.46 89.55 661.8 91.97C660.606 96.0111 658.088 99.5332 654.65 101.97C652.28 103.7 649.49 104.97 647.22 106.79C644.95 108.61 643.22 111.31 643.79 113.98C644.36 116.65 647.32 118.59 650.31 119.48C653.3 120.37 656.5 120.48 659.52 121.3C669.11 123.79 675.62 133.3 673.68 141.95C672.68 146.26 669.95 150.35 670.37 154.72C670.86 159.96 675.69 163.98 677.96 168.83C680.03 173.25 679.9 178.21 679.73 183C679.523 188.84 679.32 194.683 679.12 200.53C678.96 205.15 679.36 210.71 683.92 212.97C686.36 214.17 689.4 214.04 691.92 215.1C696.86 217.16 698.16 222.77 698.56 227.59C699.132 234.42 699.158 241.285 698.64 248.12C698.41 251.12 698.25 254.47 700.64 256.57C701.823 257.489 703.186 258.15 704.64 258.51C709.64 260.072 714.825 260.959 720.06 261.15C724.26 261.31 728.7 261.07 732.39 262.85C735.26 264.24 737.26 266.68 739.5 268.79C745.889 274.642 754.037 278.212 762.67 278.94C763.787 279.073 764.917 279.029 766.02 278.81C757.834 277.865 750.155 274.358 744.08 268.79Z" fill="black"/>
</g>
<path opacity="0.1" d="M588.93 238.63C588.93 238.63 580.93 245.97 582.1 248.97C583.27 251.97 588.93 238.63 588.93 238.63Z" fill="black"/>
<path d="M596.35 332.98C590.58 331.57 574.67 330.27 567.1 355.66C565.338 361.558 563.093 367.3 560.39 372.83C553.13 387.74 543.75 418.4 585 425.15L684 447.65C684 447.65 737 454.15 740.5 451.65C744 449.15 743.5 443.65 743.5 443.65C743.5 443.65 685 443.65 673.5 425.65C662 407.65 661.5 383.15 661.5 383.15C661.5 383.15 662.94 345.32 602.5 334.33C600.5 333.95 598.4 333.48 596.35 332.98Z" fill="#474157"/>
<path opacity="0.1" d="M596.35 333.15C590.58 331.74 574.67 330.44 567.1 355.84C565.338 361.738 563.093 367.48 560.39 373.01C553.13 387.91 543.75 418.57 585 425.32L684 447.82C684 447.82 737 454.32 740.5 451.82C744 449.32 743.5 443.82 743.5 443.82C743.5 443.82 685 443.82 673.5 425.82C662 407.82 661.5 383.32 661.5 383.32C661.5 383.32 662.94 345.49 602.5 334.5C600.5 334.12 598.4 333.63 596.35 333.15Z" fill="black"/>
<path d="M803.88 307.11C803.307 303.45 801.424 300.123 798.583 297.747C795.741 295.37 792.133 294.107 788.43 294.19C774.19 294.45 730.36 296.35 710 309.65C710 309.65 694.5 319.65 690 319.65C685.5 319.65 624.5 371.65 715 418.15C715 418.15 763.5 431.95 782.5 399.55C782.5 399.55 796 364.75 795 352.7C794 340.65 804 308.15 804 308.15C804 308.15 803.98 307.76 803.88 307.11Z" fill="#474157"/>
<path opacity="0.1" d="M803.88 315.87C802.74 308.87 796.08 303.81 788.43 303.94C774.19 304.18 730.36 305.94 710 318.21C710 318.21 694.5 327.44 690 327.44C685.5 327.44 624.5 375.44 715 418.37C715 418.37 763.5 431.11 782.5 401.2C782.5 401.2 796 369.07 795 357.95C794 346.83 804 316.83 804 316.83C804 316.83 803.98 316.47 803.88 315.87Z" fill="black"/>
<path d="M755.5 418.14H739.5V452.21H755.5V418.14Z" fill="#5F5D7E"/>
<path opacity="0.1" d="M170.24 279.6C195.115 279.6 215.28 278.306 215.28 276.71C215.28 275.114 195.115 273.82 170.24 273.82C145.365 273.82 125.2 275.114 125.2 276.71C125.2 278.306 145.365 279.6 170.24 279.6Z" fill="black"/>
<path d="M208.04 165.25C207.081 166.565 206.313 168.009 205.76 169.54C205.62 169.92 205.48 170.34 205.34 170.75C205.088 170.63 204.823 170.54 204.55 170.48C203.384 170.188 202.179 170.083 200.98 170.17C200.98 169.71 201.04 169.17 201.05 168.71C201.2 163.44 200.58 156.09 195.55 159.2C190.73 162.2 194.17 167.2 197.28 170.41L198.08 171.19C195.24 173.19 194.7 177.92 194.23 182.83C193.76 187.74 189.59 193.12 186.82 196.17C186.54 196.48 186.29 196.76 186.04 197.02C184.922 196.124 183.625 195.476 182.238 195.119C180.85 194.763 179.402 194.705 177.99 194.95C177.88 194.52 177.75 194.07 177.62 193.59C175.38 185.51 170.73 171.5 164.8 168.43L165.58 167.43C168.1 164.13 170.94 159.24 166.75 157.98C162.56 156.72 162.18 162.23 162.41 166.35C162.41 166.87 162.49 167.35 162.53 167.81C161.693 167.851 160.873 168.061 160.12 168.429C159.367 168.797 158.696 169.315 158.15 169.95L157.5 169.19C154.1 165.19 147.87 158.82 145.98 163.63C144.22 168.11 149.71 173.92 153.57 177.29L153.81 177.5C151.22 188.03 162.5 196.63 168.62 200.35L169.41 200.83C161.01 210.73 155.82 229.28 155.82 229.28L179.34 233.48C179.34 233.48 194.94 220.03 192.94 207.39H193.1C208.69 204.27 212.23 187.65 209.8 177.78L210.08 177.67C212.918 176.505 215.406 174.624 217.3 172.21C221.66 166.14 212.5 159.3 208.04 165.25Z" fill="#C11033"/>
<path opacity="0.1" d="M207.398 165.453C206.439 166.768 205.671 168.212 205.118 169.743C204.978 170.123 204.838 170.543 204.698 170.953C204.446 170.833 204.181 170.743 203.908 170.683C202.742 170.391 201.537 170.287 200.338 170.373C200.338 169.913 200.398 169.373 200.408 168.913C200.558 163.643 199.938 156.293 194.908 159.403C190.088 162.403 193.528 167.403 196.638 170.613L197.438 171.393C194.598 173.393 194.058 178.123 193.588 183.033C193.118 187.943 188.948 193.323 186.178 196.373C185.898 196.683 185.648 196.963 185.398 197.223C184.28 196.327 182.984 195.679 181.596 195.323C180.208 194.966 178.76 194.908 177.348 195.153C177.238 194.723 177.108 194.273 176.978 193.793C174.738 185.713 170.088 171.703 164.158 168.633L164.938 167.633C167.458 164.333 170.298 159.443 166.108 158.183C161.918 156.923 161.538 162.433 161.768 166.553C161.768 167.073 161.848 167.553 161.888 168.013C161.051 168.054 160.231 168.264 159.478 168.632C158.725 169 158.055 169.518 157.508 170.153L156.858 169.393C153.458 165.393 147.228 159.023 145.338 163.833C143.578 168.313 149.068 174.123 152.928 177.493L153.168 177.703C150.578 188.233 161.858 196.833 167.978 200.553L168.768 201.033C160.368 210.933 155.178 229.483 155.178 229.483L178.698 233.683C178.698 233.683 194.298 220.233 192.298 207.593H192.458C208.048 204.473 211.588 187.853 209.158 177.983L209.438 177.873C212.277 176.708 214.764 174.827 216.658 172.413C221.018 166.343 211.858 159.503 207.398 165.453Z" fill="black"/>
<path d="M161.22 172.03L158.5 180.08C158.5 180.08 156.97 179 155.04 177.3C151.18 173.93 145.69 168.12 147.45 163.64C149.34 158.83 155.57 165.18 158.97 169.2C160.31 170.79 161.22 172.03 161.22 172.03Z" fill="#C11033"/>
<path d="M167.02 167.44C166.183 168.537 165.289 169.588 164.34 170.59C164.106 169.189 163.942 167.777 163.85 166.36C163.62 162.24 164.06 156.77 168.19 157.99C172.32 159.21 169.5 164.14 167.02 167.44Z" fill="#C11033"/>
<path d="M202.5 168.71C202.42 171.36 202.16 173.47 202.16 173.47C200.949 172.529 199.803 171.506 198.73 170.41C195.62 167.18 192.18 162.2 197 159.2C202.02 156.09 202.64 163.44 202.5 168.71Z" fill="#C11033"/>
<path d="M218.74 172.18C216.839 174.593 214.344 176.471 211.5 177.63C210.713 177.971 209.904 178.262 209.08 178.5L205.84 173.95C206.183 172.447 206.631 170.97 207.18 169.53C207.733 167.999 208.501 166.555 209.46 165.24C213.96 159.3 223.1 166.14 218.74 172.18Z" fill="#C11033"/>
<path opacity="0.1" d="M158.94 169.2C160.31 170.79 161.22 172.03 161.22 172.03L158.5 180.08C158.5 180.08 156.97 179 155.04 177.3C155.471 174.723 156.536 172.293 158.14 170.23C158.38 169.86 158.67 169.51 158.94 169.2Z" fill="black"/>
<path opacity="0.1" d="M167.02 167.44C166.183 168.537 165.289 169.588 164.34 170.59C164.106 169.189 163.942 167.777 163.85 166.36C164.994 166.379 166.103 166.757 167.02 167.44Z" fill="black"/>
<path d="M180.5 199.4L173.66 202.4C173.66 202.4 172.17 201.68 170.02 200.34C162.83 195.91 148.38 184.78 158.07 171.66C167.76 158.54 175.84 182.08 179.02 193.58C180.03 197.03 180.5 199.4 180.5 199.4Z" fill="#C11033"/>
<path opacity="0.1" d="M198.72 170.41C199.712 169.381 201.062 168.772 202.49 168.71C202.41 171.36 202.15 173.47 202.15 173.47C200.939 172.529 199.793 171.506 198.72 170.41Z" fill="black"/>
<path opacity="0.1" d="M211.5 177.63C210.713 177.971 209.904 178.262 209.08 178.5L205.84 173.95C206.183 172.447 206.631 170.97 207.18 169.53C209.29 170.77 210.83 173.8 211.5 177.63Z" fill="black"/>
<path d="M194.5 207.36L193.35 207.56C170.42 211.05 185.79 198.68 185.79 198.68C185.79 198.68 186.79 197.73 188.22 196.17C190.99 193.12 195.15 187.77 195.63 182.83C196.35 175.4 197.18 168.43 205.95 170.48C214.6 172.49 216.25 203.01 194.5 207.36Z" fill="#C11033"/>
<path d="M194.11 264.44H150.3V275.96H194.11V264.44Z" fill="#474157"/>
<path d="M200.58 227H143.34V267.2H200.58V227Z" fill="#474157"/>
<path opacity="0.1" d="M193.69 264.44H149.88V275.96H193.69V264.44Z" fill="black"/>
<path opacity="0.1" d="M200.4 227.01H143.16V267.21H200.4V227.01Z" fill="black"/>
<path d="M196.99 264.44H153.18V275.96H196.99V264.44Z" fill="#474157"/>
<path opacity="0.1" d="M179.06 193.63C180.06 197.07 180.54 199.44 180.54 199.44L173.7 202.44C173.7 202.44 172.21 201.72 170.06 200.38C172.74 196.95 175.76 194.38 179.06 193.63Z" fill="black"/>
<path opacity="0.1" d="M194.5 207.36L193.35 207.56C170.42 211.05 185.79 198.68 185.79 198.68C185.79 198.68 186.79 197.73 188.22 196.17C192.5 199.63 194.31 203.46 194.5 207.36Z" fill="black"/>
<path d="M157.26 229.28C157.26 229.28 170.1 183.28 188.11 197.48C206.12 211.68 180.78 233.48 180.78 233.48L157.26 229.28Z" fill="#C11033"/>
<path opacity="0.1" d="M163.74 180.31C164.535 180.31 165.18 179.665 165.18 178.87C165.18 178.075 164.535 177.43 163.74 177.43C162.945 177.43 162.3 178.075 162.3 178.87C162.3 179.665 162.945 180.31 163.74 180.31Z" fill="black"/>
<path opacity="0.1" d="M163.62 187.04C164.415 187.04 165.06 186.395 165.06 185.6C165.06 184.805 164.415 184.16 163.62 184.16C162.825 184.16 162.18 184.805 162.18 185.6C162.18 186.395 162.825 187.04 163.62 187.04Z" fill="black"/>
<path opacity="0.1" d="M205.39 181.63C206.185 181.63 206.83 180.985 206.83 180.19C206.83 179.395 206.185 178.75 205.39 178.75C204.595 178.75 203.95 179.395 203.95 180.19C203.95 180.985 204.595 181.63 205.39 181.63Z" fill="black"/>
<path opacity="0.1" d="M171.78 216.08C172.575 216.08 173.22 215.435 173.22 214.64C173.22 213.845 172.575 213.2 171.78 213.2C170.985 213.2 170.34 213.845 170.34 214.64C170.34 215.435 170.985 216.08 171.78 216.08Z" fill="black"/>
<path opacity="0.1" d="M202.39 192.8C203.185 192.8 203.83 192.155 203.83 191.36C203.83 190.565 203.185 189.92 202.39 189.92C201.595 189.92 200.95 190.565 200.95 191.36C200.95 192.155 201.595 192.8 202.39 192.8Z" fill="black"/>
<path opacity="0.1" d="M187.51 207.68C188.305 207.68 188.95 207.035 188.95 206.24C188.95 205.445 188.305 204.8 187.51 204.8C186.715 204.8 186.07 205.445 186.07 206.24C186.07 207.035 186.715 207.68 187.51 207.68Z" fill="black"/>
<path opacity="0.1" d="M168.66 183.19C169.455 183.19 170.1 182.545 170.1 181.75C170.1 180.955 169.455 180.31 168.66 180.31C167.865 180.31 167.22 180.955 167.22 181.75C167.22 182.545 167.865 183.19 168.66 183.19Z" fill="black"/>
<path opacity="0.1" d="M201.43 185.96C202.225 185.96 202.87 185.315 202.87 184.52C202.87 183.725 202.225 183.08 201.43 183.08C200.635 183.08 199.99 183.725 199.99 184.52C199.99 185.315 200.635 185.96 201.43 185.96Z" fill="black"/>
<path opacity="0.1" d="M196.51 197.12C197.305 197.12 197.95 196.475 197.95 195.68C197.95 194.885 197.305 194.24 196.51 194.24C195.715 194.24 195.07 194.885 195.07 195.68C195.07 196.475 195.715 197.12 196.51 197.12Z" fill="black"/>
<path opacity="0.1" d="M181.38 215C182.175 215 182.82 214.355 182.82 213.56C182.82 212.765 182.175 212.12 181.38 212.12C180.585 212.12 179.94 212.765 179.94 213.56C179.94 214.355 180.585 215 181.38 215Z" fill="black"/>
<path opacity="0.1" d="M178.26 207.92C179.055 207.92 179.7 207.275 179.7 206.48C179.7 205.685 179.055 205.04 178.26 205.04C177.465 205.04 176.82 205.685 176.82 206.48C176.82 207.275 177.465 207.92 178.26 207.92Z" fill="black"/>
<path opacity="0.1" d="M170.82 191.96C171.615 191.96 172.26 191.315 172.26 190.52C172.26 189.725 171.615 189.08 170.82 189.08C170.025 189.08 169.38 189.725 169.38 190.52C169.38 191.315 170.025 191.96 170.82 191.96Z" fill="black"/>
<path opacity="0.1" d="M196.99 264.44H153.18V268.65H196.99V264.44Z" fill="black"/>
<path d="M203.46 227H146.22V267.2H203.46V227Z" fill="#474157"/>
<path opacity="0.1" d="M183.3 221.48C184.095 221.48 184.74 220.835 184.74 220.04C184.74 219.245 184.095 218.6 183.3 218.6C182.505 218.6 181.86 219.245 181.86 220.04C181.86 220.835 182.505 221.48 183.3 221.48Z" fill="black"/>
<path opacity="0.1" d="M174.66 223.28C175.455 223.28 176.1 222.635 176.1 221.84C176.1 221.045 175.455 220.4 174.66 220.4C173.865 220.4 173.22 221.045 173.22 221.84C173.22 222.635 173.865 223.28 174.66 223.28Z" fill="black"/>
<path d="M311.89 380.63C311.89 380.63 319.02 389.96 308.6 404.04C298.18 418.12 289.6 430.04 293.04 438.8C293.04 438.8 308.78 412.64 321.59 412.28C334.4 411.92 325.98 396.37 311.89 380.63Z" fill="#C11033"/>
<path opacity="0.1" d="M311.89 380.63C312.513 381.529 313.005 382.512 313.35 383.55C325.84 398.23 332.5 411.93 320.49 412.28C309.3 412.63 295.88 432.63 292.66 437.63C292.77 438.02 292.9 438.41 293.04 438.78C293.04 438.78 308.78 412.62 321.59 412.26C334.4 411.9 325.98 396.37 311.89 380.63Z" fill="black"/>
<path d="M325.15 392.53C325.15 395.81 324.78 398.47 324.33 398.47C323.88 398.47 323.51 395.81 323.51 392.53C323.51 389.25 323.97 390.79 324.42 390.79C324.87 390.79 325.15 389.24 325.15 392.53Z" fill="#FFD037"/>
<path d="M329.7 396.45C326.82 398.02 324.31 398.97 324.09 398.57C323.87 398.17 326.03 396.57 328.92 395C331.81 393.43 330.66 394.57 330.92 395C331.18 395.43 332.59 394.88 329.7 396.45Z" fill="#FFD037"/>
<path d="M274.2 380.63C274.2 380.63 267.07 389.96 277.49 404.04C287.91 418.12 296.49 430.04 293.04 438.8C293.04 438.8 277.31 412.64 264.5 412.28C251.69 411.92 260.11 396.37 274.2 380.63Z" fill="#C11033"/>
<path opacity="0.1" d="M274.2 380.63C273.577 381.529 273.085 382.512 272.74 383.55C260.25 398.23 253.59 411.93 265.6 412.28C276.79 412.63 290.21 432.63 293.43 437.63C293.321 438.02 293.191 438.404 293.04 438.78C293.04 438.78 277.31 412.63 264.5 412.29C251.69 411.95 260.11 396.37 274.2 380.63Z" fill="black"/>
<path d="M260.94 392.53C260.94 395.81 261.31 398.47 261.76 398.47C262.21 398.47 262.58 395.81 262.58 392.53C262.58 389.25 262.12 390.79 261.67 390.79C261.22 390.79 260.94 389.24 260.94 392.53Z" fill="#FFD037"/>
<path d="M256.39 396.45C259.27 398.02 261.78 398.97 262 398.57C262.22 398.17 260.06 396.57 257.17 395C254.28 393.43 255.43 394.57 255.17 395C254.91 395.43 253.5 394.88 256.39 396.45Z" fill="#FFD037"/>
<path opacity="0.1" d="M293.04 510.19C334.24 510.19 367.64 505.064 367.64 498.74C367.64 492.416 334.24 487.29 293.04 487.29C251.84 487.29 218.44 492.416 218.44 498.74C218.44 505.064 251.84 510.19 293.04 510.19Z" fill="#BB1133"/>
<path d="M331.44 426.24L331.08 429.15L330.58 433.27L330.38 434.98L329.87 439.1L329.66 440.82L329.16 444.93L323.5 491.73C322.99 495.91 316.16 499.16 307.93 499.16H278.21C269.97 499.16 263.21 495.91 262.65 491.73L256.93 444.93L256.43 440.82L256.22 439.1L255.71 434.98L255.51 433.27L255.01 429.15L254.65 426.24C254.36 423.88 258.05 421.88 262.72 421.88H323.38C328.03 421.88 331.73 423.88 331.44 426.24Z" fill="#65617D"/>
<path d="M331.08 429.15L330.58 433.26H255.51L255.01 429.15H331.08Z" fill="#9D9CB5"/>
<path d="M330.38 434.98L329.88 439.1H256.22L255.71 434.98H330.38Z" fill="#9D9CB5"/>
<path d="M329.66 440.81L329.16 444.93H256.93L256.43 440.81H329.66Z" fill="#9D9CB5"/>
<defs>
<linearGradient id="paint0_linear" x1="678.17" y1="599.98" x2="678.17" y2="83.89" gradientUnits="userSpaceOnUse">
<stop stop-color="#808080" stop-opacity="0.25"/>
<stop offset="0.54" stop-color="#808080" stop-opacity="0.12"/>
<stop offset="1" stop-color="#808080" stop-opacity="0.1"/>
</linearGradient>
</defs>
</svg>
